<?xml version="1.0" encoding="utf-8"?>
<!-- Generator: Adobe Illustrator 26.5.0, SVG Export Plug-In . SVG Version: 6.00 Build 0)  -->
<svg version="1.1" id="Layer_1" xmlns="http://www.w3.org/2000/svg" xmlns:xlink="http://www.w3.org/1999/xlink" x="0px" y="0px"
	 viewBox="0 0 800 800" style="enable-background:new 0 0 800 800;" xml:space="preserve">
<g id="icomoon-ignore">
</g>
<path d="M566.6,118.6c95.1,5.3,168.2,86.3,163.7,181.4c0,106.8-92.2,172.4-180.7,251.1c-87.3,78-134.4,120.6-149.6,130.5
	c-16.6-10.7-74.5-63.4-149.6-130.5C161.5,472.1,69.7,405.9,69.7,300c-4.5-95.2,68.6-176.2,163.7-181.4c51.5-1.6,100,24.1,127.8,67.5
	c29.2,40.9,34.1,61.3,38.9,61.3c4.9,0,9.7-20.4,38.6-61.4C466.3,142.3,515,116.6,566.6,118.6 M566.6,49c-64-2-125.4,25.2-166.8,74
	c-41.4-48.6-102.6-75.8-166.4-74C99.8,54.2-4.4,166.4,0.1,300c0,125.5,88.7,202.6,174.4,277.1c9.8,8.6,19.8,17.2,29.7,26l35.7,31.9
	c38.9,37.1,79.8,72.1,122.3,104.9c23,14.9,52.6,14.9,75.6,0c43.9-33.9,86-70,126.1-108.3l32.1-28.7c10.2-9,20.5-18,30.8-26.9
	c81.2-70.4,173.2-150.2,173.2-276.1C804.4,166.4,700.2,54.2,566.6,49L566.6,49z"/>
</svg>
