<?xml version="1.0" encoding="utf-8"?>
<!-- Generator: Adobe Illustrator 26.5.0, SVG Export Plug-In . SVG Version: 6.00 Build 0)  -->
<svg version="1.1" id="Layer_1" xmlns:serif="http://www.serif.com/"
	 xmlns="http://www.w3.org/2000/svg" xmlns:xlink="http://www.w3.org/1999/xlink" x="0px" y="0px" viewBox="0 0 32 40"
	 style="enable-background:new 0 0 32 40;" xml:space="preserve">
<style type="text/css">
	.st0{fill-rule:evenodd;clip-rule:evenodd;}
</style>
<g transform="matrix(1,0,0,1,-48,-144)">
	<g transform="matrix(1.14293,0,0,1.35723,-9.14766,-57.1571)">
		<path class="st0" d="M78,151.2c0-1.1-1.1-2.1-2.5-2.1H52.5c-1.4,0-2.5,0.9-2.5,2.1c0,5.4,0,25,0,25c0,0.3,0.2,0.5,0.4,0.6
			c0.3,0.1,0.6,0.1,0.8,0l12.7-7.4l12.7,7.4c0.3,0.1,0.6,0.2,0.8,0c0.3-0.1,0.4-0.4,0.4-0.6V151.2z M76.4,151.2v23.6l-11.9-6.9
			c-0.3-0.2-0.7-0.2-0.9,0l-11.9,6.9v-23.6c0-0.4,0.4-0.7,0.8-0.7h23.1C76,150.5,76.4,150.8,76.4,151.2z"/>
	</g>
</g>
</svg>
